<?xml version="1.0" encoding="utf-8"?>
<!-- Generator: Adobe Illustrator 22.1.0, SVG Export Plug-In . SVG Version: 6.00 Build 0)  -->
<svg version="1.1" id="Layer_1" xmlns="http://www.w3.org/2000/svg" xmlns:xlink="http://www.w3.org/1999/xlink" x="0px" y="0px"
	 viewBox="0 0 139.8 147.2" style="enable-background:new 0 0 139.8 147.2;" xml:space="preserve">
<style type="text/css">
	.st0{fill:#FFFFFF;}
</style>
<g>
	<g id="yR9Zq5_1_">
		<g>
			<path class="st0" d="M56.3,23.4c-0.4,1.9-0.8,4-1,5.9c-0.2,2.2-0.2,4.3,0,6.5c0.3,4.2,1.4,8.1,3.1,11.9c1.8,3.8,4.1,7.2,6.6,10.5
				c2.7,3.5,5.7,6.9,8.5,10.4c3.1,3.9,6,7.9,8.1,12.4c1.7,3.6,2.9,7.4,3.5,11.4c0.4,3.2,0,6.3-1.1,9.3c-1.2,3.7-3.1,7-5.3,10.2
				c-3.1,4.4-6.6,8.4-10.5,12.2c-6.7,6.5-13.9,12.4-21.6,17.7c-0.3,0.2-0.5,0.3-0.8,0.4c0.1-0.2,0.3-0.3,0.5-0.5
				c6.7-6.1,12.9-12.5,18.2-19.9c3.5-5,6.5-10.3,8.4-16.1c1.4-4.3,2.1-8.6,1.8-13.1c-0.3-4.2-1.4-8.2-3.4-12c-1.6-3-3.6-5.6-5.8-8.2
				c-4.4-5.2-8.1-10.7-10.8-17c-1.6-3.7-2.7-7.6-3.2-11.6c-0.7-6.1,0.1-11.9,2.8-17.4C55,25.4,56.3,23.4,56.3,23.4z"/>
			<path class="st0" d="M51.1,23.3c-0.5,1-1.4,2.3-1.9,3.4c-1.5,3-2.4,6.2-2.8,9.6c-0.7,5.7,0.3,11.2,2.3,16.6
				c1.8,4.8,4.3,9.3,7.2,13.5c1.6,2.3,3.3,4.4,4.8,6.7c2.9,4.5,5.1,9.4,6.2,14.7c0.6,2.9,0.8,5.9,0.5,8.9c-0.6,7.3-3.5,13.6-8,19.2
				c-1.8,2.3-3.8,4.3-6.2,6.1c-0.2,0.2-0.5,0.4-0.8,0.4c0.1-0.1,0.2-0.3,0.4-0.4c3.3-3.5,6-7.4,7.8-11.9c1.8-4.4,2.7-9,2.5-13.8
				c-0.1-4.9-1.3-9.5-3.1-13.9c-2-4.9-4.7-9.3-7.8-13.5c-3.6-4.8-6.5-10-8.3-15.8c-1.2-3.8-1.7-7.8-1.4-11.8c0.4-4.9,2-9.4,4.7-13.5
				C48.1,26.2,51,23.3,51.1,23.3z"/>
			<path class="st0" d="M81.9,45.8c0,4.7-3.8,8.5-8.5,8.5c-4.7,0-8.5-3.8-8.5-8.5c0-4.7,3.8-8.5,8.5-8.5
				C78.1,37.4,81.9,41.2,81.9,45.8z"/>
		</g>
	</g>
	<path class="st0" d="M76.7,134.4c3-0.6,6-1.4,8.9-2.3l1.1-0.4c0.4-0.1,0.7-0.3,1.1-0.4l1.1-0.4c0.4-0.1,0.7-0.3,1.1-0.4l2.1-0.9
		l2.1-1c5.4-2.8,10.5-6.2,14.9-10.3c4.4-4.1,8.2-8.8,11.3-13.9c3.1-5.1,5.3-10.7,6.8-16.4c1.5-5.7,2.1-11.7,1.8-17.6
		c0-1.5-0.2-2.9-0.3-4.4c-0.2-1.5-0.4-2.9-0.6-4.4l-0.1-0.5c0-0.2-0.1-0.4-0.1-0.5l-0.2-1.1c-0.1-0.4-0.2-0.7-0.3-1.1
		c-0.1-0.4-0.2-0.7-0.3-1.1c-0.2-0.7-0.4-1.4-0.6-2.1c-0.2-0.7-0.4-1.4-0.7-2.1c-1.9-5.6-4.5-10.8-7.9-15.6
		c-0.4-0.6-0.9-1.2-1.3-1.8l-0.7-0.9c-0.1-0.1-0.2-0.3-0.3-0.4l-0.3-0.4c-0.2-0.3-0.5-0.6-0.7-0.8l-0.7-0.8
		c-0.2-0.3-0.5-0.5-0.7-0.8l-0.4-0.4c-0.1-0.1-0.3-0.3-0.4-0.4l-0.8-0.8l-0.8-0.8c-0.3-0.3-0.5-0.5-0.8-0.8l-0.4-0.4
		c-0.1-0.1-0.3-0.3-0.4-0.4l-0.8-0.7c-0.3-0.2-0.6-0.5-0.8-0.7l-0.4-0.4c-0.1-0.1-0.3-0.2-0.4-0.3l-0.9-0.7
		c-1.2-0.9-2.3-1.8-3.5-2.6c-1.2-0.8-2.4-1.6-3.7-2.3c-0.3-0.2-0.6-0.4-1-0.5L97.1,19c-0.2-0.1-0.3-0.2-0.5-0.3
		c-0.3-0.2-0.6-0.3-1-0.5l-1-0.5l-0.2-0.1l-0.2-0.1l-0.5-0.2L93.1,17c-0.2-0.1-0.3-0.1-0.5-0.2c-0.3-0.1-0.7-0.3-1-0.4l-1-0.4
		c-5.4-2.2-11.2-3.6-17-4.1c-1.5-0.1-2.9-0.2-4.4-0.2c-1.5,0-2.9,0-4.4,0.1c-1.5,0.1-2.9,0.2-4.4,0.4c-1.5,0.2-2.9,0.4-4.4,0.7
		c-5.8,1.1-11.4,3.1-16.6,5.9C34.1,21.4,29.3,24.9,25,29c-0.3,0.3-0.5,0.5-0.8,0.8l-0.4,0.4l-0.4,0.4l-0.8,0.8l-0.8,0.8l-0.4,0.4
		c-0.1,0.1-0.2,0.3-0.4,0.4l-0.7,0.9l-0.7,0.9l-0.4,0.4c-0.1,0.1-0.2,0.3-0.3,0.4l-0.7,0.9l-0.7,0.9L17.3,38
		c-0.1,0.2-0.2,0.3-0.3,0.5l-0.6,0.9l-0.6,0.9l-0.3,0.5l-0.3,0.5l-0.6,1l-0.6,1c-3,5.2-5.2,10.9-6.6,16.9C6,66,5.5,72.2,5.7,78.3
		c-1-6.1-1.1-12.4-0.2-18.6l0.2-1.2c0.1-0.4,0.1-0.8,0.2-1.2L6,56.8l0.1-0.6l0.2-1.2l0.3-1.2c0-0.2,0.1-0.4,0.1-0.6l0.2-0.6
		C7,52.4,7.1,52,7.3,51.6l0.3-1.1c0.5-1.5,1-3,1.6-4.5c0.3-0.7,0.6-1.5,0.9-2.2c0.2-0.4,0.3-0.7,0.5-1.1l0.2-0.5
		c0.1-0.2,0.2-0.4,0.3-0.5l0.5-1.1l0.6-1.1l0.3-0.5l0.3-0.5l0.6-1l0.6-1c0.1-0.2,0.2-0.3,0.3-0.5l0.3-0.5l0.6-1l0.7-1
		c0.1-0.2,0.2-0.3,0.3-0.5l0.3-0.5c0.2-0.3,0.5-0.7,0.7-1l0.7-1c0.1-0.2,0.2-0.3,0.4-0.5l0.4-0.5l0.8-0.9l0.8-0.9l0.4-0.5l0.4-0.4
		c0.3-0.3,0.5-0.6,0.8-0.9c0.6-0.6,1.1-1.2,1.7-1.7c0.6-0.6,1.1-1.1,1.7-1.7c0.3-0.3,0.6-0.5,0.9-0.8l0.4-0.4l0.5-0.4
		c0.3-0.3,0.6-0.5,0.9-0.8l0.9-0.8c0.2-0.1,0.3-0.3,0.5-0.4l0.5-0.4l0.5-0.4c0.2-0.1,0.3-0.2,0.5-0.4c0.3-0.2,0.6-0.5,1-0.7l1-0.7
		c0.3-0.2,0.7-0.4,1-0.7c0.3-0.2,0.7-0.4,1-0.7l1-0.6l1-0.6c2.8-1.6,5.7-3,8.7-4.2c3-1.2,6.1-2.1,9.3-2.9c1.6-0.4,3.2-0.7,4.8-0.9
		c1.6-0.2,3.2-0.4,4.8-0.5c1.6-0.1,3.2-0.2,4.9-0.2c1.6,0,3.2,0.1,4.9,0.2c1.6,0.1,3.2,0.3,4.8,0.5c1.6,0.2,3.2,0.5,4.8,0.9L85,7.1
		c0.4,0.1,0.8,0.2,1.2,0.3c0.2,0.1,0.4,0.1,0.6,0.2l0.6,0.2l0.6,0.2l0.3,0.1L88.5,8l1.2,0.4c0.4,0.1,0.8,0.3,1.2,0.4
		C91,8.9,91.2,8.9,91.4,9L92,9.2l0.6,0.2l0.3,0.1l0.3,0.1l1.1,0.5c0.4,0.2,0.7,0.3,1.1,0.5c0.2,0.1,0.4,0.2,0.6,0.2l0.6,0.3l0.6,0.3
		l0.3,0.1l0.3,0.1l1.1,0.5c0.4,0.2,0.7,0.4,1.1,0.6c0.2,0.1,0.4,0.2,0.5,0.3l0.5,0.3l0.5,0.3c0.2,0.1,0.4,0.2,0.5,0.3
		c1.4,0.8,2.8,1.7,4.1,2.6c1.3,0.9,2.7,1.9,3.9,2.9l0.9,0.8c0.2,0.1,0.3,0.3,0.5,0.4l0.5,0.4c0.3,0.3,0.6,0.5,0.9,0.8l0.9,0.8
		c0.2,0.1,0.3,0.3,0.4,0.4l0.4,0.4c0.3,0.3,0.6,0.6,0.9,0.8l0.9,0.9l0.8,0.9c0.1,0.1,0.3,0.3,0.4,0.4l0.4,0.5
		c0.3,0.3,0.5,0.6,0.8,0.9l0.8,0.9c0.3,0.3,0.5,0.6,0.8,0.9l0.4,0.5c0.1,0.2,0.2,0.3,0.4,0.5c0.2,0.3,0.5,0.6,0.7,1
		c0.5,0.7,1,1.3,1.4,2c3.7,5.4,6.6,11.3,8.6,17.5c0.3,0.8,0.5,1.6,0.7,2.3c0.2,0.8,0.4,1.6,0.6,2.4c0.1,0.4,0.2,0.8,0.3,1.2
		c0.1,0.4,0.2,0.8,0.2,1.2l0.2,1.2c0,0.2,0.1,0.4,0.1,0.6l0.1,0.6l0.1,0.6l0.1,0.6c0.1,0.4,0.1,0.8,0.2,1.2l0.1,1.2
		c0,0.4,0.1,0.8,0.1,1.2c0.1,1.6,0.2,3.2,0.2,4.9c0.1,6.5-0.9,13-2.7,19.1c-0.5,1.5-1,3.1-1.6,4.6c-0.6,1.5-1.2,3-1.9,4.4
		c-0.7,1.5-1.4,2.9-2.2,4.3c-0.2,0.4-0.4,0.7-0.6,1l-0.3,0.5l-0.3,0.5c-0.2,0.3-0.4,0.7-0.6,1l-0.7,1c-3.6,5.3-7.9,10.1-12.9,14.1
		c-0.6,0.5-1.2,1-1.9,1.5l-1,0.7l-0.5,0.4l-0.2,0.2l-0.2,0.2l-2,1.3c-0.2,0.1-0.3,0.2-0.5,0.3l-0.5,0.3l-1,0.6
		c-2.7,1.6-5.6,3-8.5,4.1l-2.2,0.8c-0.7,0.2-1.5,0.5-2.2,0.7c-0.4,0.1-0.7,0.2-1.1,0.3l-1.1,0.3c-0.7,0.2-1.5,0.4-2.3,0.6
		C82.8,133.7,79.8,134.2,76.7,134.4z"/>
</g>
</svg>
