<?xml version="1.0" encoding="utf-8"?>
<!-- Generator: Adobe Illustrator 22.1.0, SVG Export Plug-In . SVG Version: 6.00 Build 0)  -->
<svg version="1.1" id="Layer_1" xmlns="http://www.w3.org/2000/svg" xmlns:xlink="http://www.w3.org/1999/xlink" x="0px" y="0px"
	 viewBox="0 0 80 80" style="enable-background:new 0 0 80 80;" xml:space="preserve">
<style type="text/css">
	.st0{fill:#CBCBCB;}
</style>
<g>
	<g>
		<path class="st0" d="M21.8,40c3.9,0.8,6.9,2.6,9,5.2c2.1,2.6,3.2,5.9,3.2,9.6c0,3.8-1.2,7-3.5,9.8c-2.4,2.8-5.8,4.1-10.4,4.1
			c-1.8,0-3.6-0.4-5.6-1.1c-1.9-0.7-3.7-1.9-5.2-3.6c-1.5-1.7-2.8-3.9-3.8-6.6c-1-2.7-1.5-6-1.5-9.9c0-4,0.6-7.9,1.9-11.6
			c1.3-3.7,3.1-7.1,5.3-10.2c2.2-3.1,4.8-5.9,7.6-8.4s5.8-4.5,8.8-6.2l6.7,9.2c-3.6,2-6.9,4.6-9.7,7.9c-2.8,3.3-4.6,7-5.5,11.1
			L21.8,40z M63.5,40c3.9,0.8,6.9,2.6,9,5.2c2.1,2.6,3.2,5.9,3.2,9.6c0,3.8-1.2,7-3.5,9.8c-2.4,2.8-5.8,4.1-10.4,4.1
			c-1.8,0-3.6-0.4-5.5-1.1c-1.9-0.7-3.6-1.9-5.1-3.6c-1.5-1.7-2.8-3.9-3.8-6.6c-1-2.7-1.5-6-1.5-9.9c0-4,0.6-7.9,1.9-11.6
			c1.3-3.7,3-7.1,5.2-10.2c2.2-3.1,4.7-5.9,7.5-8.4c2.8-2.5,5.8-4.5,8.8-6.2l6.7,9.2c-3.5,2-6.7,4.6-9.6,7.9
			c-2.9,3.3-4.7,7-5.6,11.1L63.5,40z"/>
	</g>
</g>
</svg>
