<?xml version="1.0" encoding="utf-8"?>
<!-- Generator: Adobe Illustrator 22.1.0, SVG Export Plug-In . SVG Version: 6.00 Build 0)  -->
<svg version="1.1" id="Layer_1" xmlns="http://www.w3.org/2000/svg" xmlns:xlink="http://www.w3.org/1999/xlink" x="0px" y="0px"
	 viewBox="0 0 152 38" style="enable-background:new 0 0 152 38;" xml:space="preserve">
<style type="text/css">
	.st0{fill:#85A6C7;}
	.st1{fill:#424143;}
</style>
<g>
	<g>
		<g id="yR9Zq5_3_">
			<g>
				<g>
					<g>
						<path class="st0" d="M15.8,6.5c-0.1,0.5-0.2,1-0.2,1.5c0,0.5-0.1,1.1,0,1.6c0.1,1,0.3,2,0.8,3c0.4,0.9,1,1.8,1.7,2.6
							c0.7,0.9,1.4,1.7,2.1,2.6c0.8,1,1.5,2,2,3.1c0.4,0.9,0.7,1.8,0.9,2.8c0.1,0.8,0,1.6-0.3,2.3c-0.3,0.9-0.8,1.7-1.3,2.5
							c-0.8,1.1-1.7,2.1-2.6,3c-1.7,1.6-3.5,3.1-5.4,4.4C13.3,36,13.3,36,13.2,36c0-0.1,0.1-0.1,0.1-0.1c1.7-1.5,3.2-3.1,4.5-5
							c0.9-1.2,1.6-2.6,2.1-4c0.3-1.1,0.5-2.1,0.5-3.3c-0.1-1.1-0.4-2-0.8-3c-0.4-0.7-0.9-1.4-1.4-2c-1.1-1.3-2-2.7-2.7-4.2
							c-0.4-0.9-0.7-1.9-0.8-2.9c-0.2-1.5,0-3,0.7-4.3C15.5,7,15.8,6.5,15.8,6.5z"/>
					</g>
				</g>
				<g>
					<path class="st1" d="M14.5,6.5C14.4,6.7,14.2,7,14,7.3c-0.4,0.8-0.6,1.5-0.7,2.4c-0.2,1.4,0.1,2.8,0.6,4.1
						c0.4,1.2,1.1,2.3,1.8,3.4c0.4,0.6,0.8,1.1,1.2,1.7c0.7,1.1,1.3,2.3,1.5,3.7c0.1,0.7,0.2,1.5,0.1,2.2c-0.1,1.8-0.9,3.4-2,4.8
						c-0.5,0.6-1,1.1-1.5,1.5c-0.1,0-0.1,0.1-0.2,0.1c0,0,0.1-0.1,0.1-0.1c0.8-0.9,1.5-1.8,2-3c0.5-1.1,0.7-2.3,0.6-3.4
						c0-1.2-0.3-2.4-0.8-3.5c-0.5-1.2-1.2-2.3-1.9-3.4c-0.9-1.2-1.6-2.5-2.1-3.9c-0.3-1-0.4-1.9-0.4-2.9c0.1-1.2,0.5-2.3,1.2-3.4
						C13.8,7.2,14.5,6.5,14.5,6.5z"/>
				</g>
				<g>
					<path class="st0" d="M22.2,12.1c0,1.2-1,2.1-2.1,2.1c-1.2,0-2.1-1-2.1-2.1c0-1.2,0.9-2.1,2.1-2.1C21.2,10,22.2,10.9,22.2,12.1z
						"/>
				</g>
			</g>
		</g>
		<g>
			<path class="st1" d="M20.9,34.1c0.8-0.1,1.5-0.3,2.2-0.6l0.3-0.1c0.1,0,0.2-0.1,0.3-0.1l0.3-0.1c0.1,0,0.2-0.1,0.3-0.1l0.5-0.2
				l0.5-0.2c1.4-0.7,2.6-1.5,3.7-2.6c1.1-1,2-2.2,2.8-3.5c0.8-1.3,1.3-2.7,1.7-4.1c0.4-1.4,0.5-2.9,0.5-4.4c0-0.4,0-0.7-0.1-1.1
				c0-0.4-0.1-0.7-0.2-1.1l0-0.1c0,0,0-0.1,0-0.1l-0.1-0.3c0-0.1,0-0.2-0.1-0.3c0-0.1,0-0.2-0.1-0.3c0-0.2-0.1-0.4-0.1-0.5
				c-0.1-0.2-0.1-0.3-0.2-0.5c-0.5-1.4-1.1-2.7-2-3.9c-0.1-0.1-0.2-0.3-0.3-0.4l-0.2-0.2c0,0-0.1-0.1-0.1-0.1l-0.1-0.1
				C30.4,9,30.3,9,30.3,8.9l-0.2-0.2C30,8.6,30,8.6,29.9,8.5l-0.1-0.1c0,0-0.1-0.1-0.1-0.1l-0.2-0.2l-0.2-0.2
				c-0.1-0.1-0.1-0.1-0.2-0.2L29,7.6c0,0-0.1-0.1-0.1-0.1l-0.2-0.2c-0.1-0.1-0.1-0.1-0.2-0.2l-0.1-0.1c0,0-0.1-0.1-0.1-0.1l-0.2-0.2
				c-0.3-0.2-0.6-0.4-0.9-0.6c-0.3-0.2-0.6-0.4-0.9-0.6c-0.1,0-0.2-0.1-0.2-0.1l-0.1-0.1c0,0-0.1,0-0.1-0.1c-0.1,0-0.2-0.1-0.2-0.1
				l-0.2-0.1l-0.1,0l-0.1,0L25.1,5L25,4.9c0,0-0.1,0-0.1-0.1c-0.1,0-0.2-0.1-0.3-0.1l-0.3-0.1c-1.4-0.5-2.8-0.9-4.2-1
				c-0.4,0-0.7-0.1-1.1-0.1c-0.4,0-0.7,0-1.1,0c-0.4,0-0.7,0.1-1.1,0.1c-0.4,0-0.7,0.1-1.1,0.2c-1.4,0.3-2.8,0.8-4.1,1.5
				C10.3,6,9.1,6.9,8,7.9C7.9,8,7.9,8,7.8,8.1L7.7,8.2L7.6,8.3L7.4,8.5L7.2,8.7L7.1,8.8c0,0-0.1,0.1-0.1,0.1L6.9,9.1L6.7,9.3
				L6.6,9.4c0,0-0.1,0.1-0.1,0.1L6.3,9.8L6.2,10l-0.1,0.1c0,0-0.1,0.1-0.1,0.1l-0.2,0.2l-0.2,0.2l-0.1,0.1l-0.1,0.1l-0.1,0.2
				l-0.1,0.2c-0.7,1.3-1.3,2.7-1.6,4.2c-0.3,1.5-0.5,3-0.4,4.6c-0.3-1.5-0.3-3.1,0-4.6l0-0.3c0-0.1,0-0.2,0.1-0.3l0-0.1l0-0.1
				l0.1-0.3l0.1-0.3c0,0,0-0.1,0-0.1l0-0.1c0-0.1,0-0.2,0.1-0.3l0.1-0.3c0.1-0.4,0.2-0.7,0.4-1.1c0.1-0.2,0.1-0.4,0.2-0.5
				c0-0.1,0.1-0.2,0.1-0.3l0.1-0.1c0,0,0-0.1,0.1-0.1l0.1-0.3l0.1-0.3l0.1-0.1l0.1-0.1L5.1,10l0.2-0.3c0,0,0.1-0.1,0.1-0.1l0.1-0.1
				l0.2-0.3L5.7,9c0,0,0.1-0.1,0.1-0.1l0.1-0.1C5.9,8.7,6,8.6,6.1,8.5l0.2-0.2c0,0,0.1-0.1,0.1-0.1L6.4,8l0.2-0.2l0.2-0.2l0.1-0.1
				L7,7.3c0.1-0.1,0.1-0.1,0.2-0.2C7.3,7,7.5,6.8,7.6,6.7C7.8,6.5,7.9,6.4,8,6.3c0.1-0.1,0.1-0.1,0.2-0.2L8.4,6l0.1-0.1
				c0.1-0.1,0.2-0.1,0.2-0.2L9,5.5c0,0,0.1-0.1,0.1-0.1l0.1-0.1l0.1-0.1c0,0,0.1-0.1,0.1-0.1C9.5,5.1,9.6,5,9.7,4.9l0.2-0.2
				c0.1-0.1,0.2-0.1,0.3-0.2c0.1-0.1,0.2-0.1,0.3-0.2l0.3-0.2l0.3-0.2c0.7-0.4,1.4-0.8,2.2-1c0.7-0.3,1.5-0.5,2.3-0.7
				c0.4-0.1,0.8-0.2,1.2-0.2C17,2.1,17.4,2,17.8,2c0.4,0,0.8,0,1.2,0c0.4,0,0.8,0,1.2,0c0.4,0,0.8,0.1,1.2,0.1
				c0.4,0.1,0.8,0.1,1.2,0.2l0.3,0.1c0.1,0,0.2,0.1,0.3,0.1c0,0,0.1,0,0.1,0l0.1,0l0.1,0l0.1,0l0.1,0l0.3,0.1c0.1,0,0.2,0.1,0.3,0.1
				c0,0,0.1,0,0.1,0L24.7,3L24.8,3l0.1,0l0.1,0l0.3,0.1c0.1,0,0.2,0.1,0.3,0.1c0,0,0.1,0,0.1,0.1l0.1,0.1l0.1,0.1l0.1,0l0.1,0
				l0.3,0.1c0.1,0,0.2,0.1,0.3,0.1c0,0,0.1,0,0.1,0.1L26.9,4L27,4c0,0,0.1,0,0.1,0.1c0.4,0.2,0.7,0.4,1,0.6c0.3,0.2,0.7,0.5,1,0.7
				l0.2,0.2c0,0,0.1,0.1,0.1,0.1l0.1,0.1c0.1,0.1,0.2,0.1,0.2,0.2l0.2,0.2c0,0,0.1,0.1,0.1,0.1l0.1,0.1c0.1,0.1,0.1,0.1,0.2,0.2
				l0.2,0.2L31,7.1c0,0,0.1,0.1,0.1,0.1l0.1,0.1c0.1,0.1,0.1,0.1,0.2,0.2l0.2,0.2C31.6,7.9,31.7,8,31.8,8l0.1,0.1
				c0,0,0.1,0.1,0.1,0.1c0.1,0.1,0.1,0.2,0.2,0.2c0.1,0.2,0.2,0.3,0.4,0.5c0.9,1.3,1.6,2.8,2.1,4.4c0.1,0.2,0.1,0.4,0.2,0.6
				c0.1,0.2,0.1,0.4,0.1,0.6c0,0.1,0,0.2,0.1,0.3c0,0.1,0,0.2,0.1,0.3l0.1,0.3c0,0,0,0.1,0,0.1l0,0.1l0,0.1l0,0.2c0,0.1,0,0.2,0,0.3
				l0,0.3c0,0.1,0,0.2,0,0.3c0,0.4,0.1,0.8,0.1,1.2c0,1.6-0.2,3.2-0.7,4.8c-0.1,0.4-0.2,0.8-0.4,1.1c-0.1,0.4-0.3,0.7-0.5,1.1
				c-0.2,0.4-0.4,0.7-0.6,1.1c0,0.1-0.1,0.2-0.2,0.3l-0.1,0.1L33,26.7c-0.1,0.1-0.1,0.2-0.2,0.3l-0.2,0.2c-0.9,1.3-2,2.5-3.2,3.5
				c-0.2,0.1-0.3,0.3-0.5,0.4l-0.2,0.2l-0.1,0.1l-0.1,0l-0.1,0L28,31.8c0,0-0.1,0.1-0.1,0.1l-0.1,0.1l-0.3,0.2
				c-0.7,0.4-1.4,0.7-2.1,1l-0.5,0.2c-0.2,0.1-0.4,0.1-0.6,0.2c-0.1,0-0.2,0.1-0.3,0.1l-0.3,0.1c-0.2,0.1-0.4,0.1-0.6,0.1
				C22.4,34,21.6,34.1,20.9,34.1z"/>
		</g>
	</g>
	<g>
		<path class="st0" d="M42.3,14h4c2.3,0,3.7,1.4,3.7,3.4v0c0,2.3-1.8,3.4-4,3.4h-1.6v2.9h-2.2V14z M46.2,18.9c1.1,0,1.7-0.6,1.7-1.5
			v0c0-1-0.7-1.5-1.7-1.5h-1.7v3H46.2z"/>
		<path class="st0" d="M51.7,14h2.2v3.9h4V14h2.2v9.8h-2.2v-3.9h-4v3.9h-2.2V14z"/>
		<path class="st0" d="M65,19.9L61.3,14h2.5l2.3,3.9l2.4-3.9h2.4l-3.8,5.9v3.9H65V19.9z"/>
		<path class="st0" d="M71.1,22.4l1.3-1.5c0.9,0.7,1.8,1.2,2.9,1.2c0.9,0,1.4-0.3,1.4-0.9v0c0-0.5-0.3-0.8-2-1.2c-2-0.5-3.2-1-3.2-3
			v0c0-1.8,1.4-2.9,3.4-2.9c1.4,0,2.6,0.4,3.6,1.2l-1.1,1.6c-0.9-0.6-1.7-1-2.5-1c-0.8,0-1.3,0.4-1.3,0.9v0c0,0.6,0.4,0.9,2.1,1.3
			c2,0.5,3.1,1.2,3.1,2.9v0c0,1.9-1.5,3-3.6,3C73.8,23.9,72.3,23.4,71.1,22.4z"/>
		<path class="st0" d="M80.8,14H83v9.8h-2.2V14z"/>
		<path class="st0" d="M85,18.9L85,18.9c0-2.8,2.2-5.1,5.2-5.1s5.2,2.2,5.2,5v0c0,2.8-2.2,5.1-5.2,5.1S85,21.7,85,18.9z M93.1,18.9
			L93.1,18.9c0-1.7-1.2-3.1-3-3.1c-1.7,0-2.9,1.4-2.9,3v0c0,1.7,1.2,3.1,3,3.1C91.9,22,93.1,20.6,93.1,18.9z"/>
		<path class="st1" d="M100,13.9h2l4.2,9.8h-2.2l-0.9-2.2h-4.1L98,23.8h-2.2L100,13.9z M102.3,19.7l-1.3-3.2l-1.3,3.2H102.3z"/>
		<path class="st1" d="M106.6,18.9L106.6,18.9c0-2.8,2.1-5.1,5.1-5.1c1.8,0,2.9,0.6,3.9,1.5l-1.4,1.6c-0.8-0.7-1.5-1.1-2.5-1.1
			c-1.6,0-2.8,1.4-2.8,3v0c0,1.7,1.2,3.1,2.8,3.1c1.1,0,1.8-0.4,2.6-1.1l1.4,1.4c-1,1.1-2.1,1.7-4,1.7
			C108.7,24,106.6,21.7,106.6,18.9z"/>
		<path class="st1" d="M119.6,16h-3v-2h8.1v2h-3v7.8h-2.2V16z"/>
		<path class="st1" d="M126.5,14h2.2v9.8h-2.2V14z"/>
		<path class="st1" d="M130.2,14h2.4l2.6,6.9l2.6-6.9h2.3l-4,9.8h-1.9L130.2,14z"/>
		<path class="st1" d="M141.6,14h7.4v1.9h-5.2v2h4.6v1.9h-4.6v2.1h5.3v1.9h-7.4V14z"/>
	</g>
</g>
</svg>
